<svg width="26" height="24" viewBox="0 0 26 24" fill="none" xmlns="http://www.w3.org/2000/svg">
<path id="Vector" d="M13 0.0347825C9.71344 0.00138547 6.54807 1.27425 4.19958 3.57365C1.85108 5.87304 0.511618 9.0108 0.475571 12.2973C0.488234 14.8946 1.32375 17.4211 2.86212 19.5139C4.40048 21.6066 6.56253 23.1579 9.03773 23.9451C9.66395 24.0589 9.89167 23.6832 9.89167 23.353C9.89167 23.0228 9.89167 22.2941 9.89167 21.2694C6.4076 22.0095 5.66752 19.6298 5.66752 19.6298C5.43558 18.8828 4.9425 18.2442 4.27844 17.8309C3.13986 17.0794 4.36953 17.0908 4.36953 17.0908C4.76308 17.1434 5.13962 17.2844 5.47089 17.5033C5.80217 17.7222 6.07959 18.0132 6.28235 18.3546C6.63569 18.9673 7.21546 19.4168 7.89688 19.6063C8.5783 19.7958 9.30688 19.7102 9.92583 19.368C9.98948 18.7444 10.2718 18.1636 10.7228 17.7284C7.94469 17.421 5.02991 16.3735 5.02991 11.6711C5.00507 10.4445 5.45829 9.25631 6.29374 8.35784C5.91326 7.30473 5.95818 6.14478 6.41898 5.12426C6.41898 5.12426 7.47787 4.79407 9.83474 6.3767C11.8863 5.83 14.0453 5.83 16.097 6.3767C18.488 4.79407 19.5127 5.12426 19.5127 5.12426C19.9735 6.14478 20.0184 7.30473 19.638 8.35784C20.4928 9.23984 20.9706 10.4201 20.9701 11.6483C20.9701 16.3621 18.0325 17.3982 15.2772 17.7056C15.5789 17.9985 15.8119 18.3547 15.9596 18.7484C16.1072 19.1421 16.1658 19.5637 16.1311 19.9828V23.3416C16.1311 23.3416 16.3588 24.0589 16.9851 23.9337C19.4532 23.1417 21.608 21.59 23.1416 19.5002C24.6752 17.4104 25.5092 14.8894 25.5244 12.2973C25.4884 9.0108 24.1489 5.87304 21.8004 3.57365C19.4519 1.27425 16.2866 0.00138547 13 0.0347825Z" fill="white"/>
</svg>
