<svg width="29" height="18" viewBox="0 0 29 18" fill="none" xmlns="http://www.w3.org/2000/svg">
<g filter="url(#filter0_d_12_28)">
<path fill-rule="evenodd" clip-rule="evenodd" d="M23.8744 0.677136C24.0134 0.286814 23.8744 0 23.2128 0H21.0248C20.4684 0 20.2119 0.247764 20.0728 0.520972C20.0728 0.520972 18.9601 2.80434 17.3838 4.2875C16.8739 4.71686 16.6421 4.8535 16.3639 4.8535C16.2248 4.8535 16.0162 4.71686 16.0162 4.32657V0.677136C16.0162 0.20875 15.8621 0 15.3984 0H11.9601C11.6125 0 11.4034 0.217386 11.4034 0.423414C11.4034 0.867436 12.1915 0.969836 12.2727 2.21886V4.93157C12.2727 5.52629 12.1451 5.63414 11.8669 5.63414C11.1252 5.63414 9.32089 3.34059 8.25077 0.71615C8.04106 0.20605 7.83072 0 7.27152 0H5.08351C4.45837 0 4.33333 0.247764 4.33333 0.520972C4.33333 1.00889 5.07511 3.42885 7.7872 6.62943C9.59524 8.81514 12.1427 10 14.4607 10C15.8515 10 16.0236 9.73686 16.0236 9.28357V7.63157C16.0236 7.10529 16.1553 7.00021 16.5958 7.00021C16.9203 7.00021 17.4766 7.13686 18.7747 8.19071C20.2583 9.43971 20.5028 10 21.3373 10H23.5253C24.1504 10 24.463 9.73686 24.2827 9.2175C24.0854 8.69993 23.3771 7.949 22.4373 7.05879C21.9273 6.55136 21.1623 6.00493 20.9304 5.73164C20.6059 5.38043 20.6987 5.22429 20.9304 4.91207C20.9304 4.91207 23.5963 1.75048 23.8744 0.677136Z" fill="white"/>
</g>
<defs>
<filter id="filter0_d_12_28" x="0.333328" y="0" width="28" height="18" filterUnits="userSpaceOnUse" color-interpolation-filters="sRGB">
<feFlood flood-opacity="0" result="BackgroundImageFix"/>
<feColorMatrix in="SourceAlpha" type="matrix" values="0 0 0 0 0 0 0 0 0 0 0 0 0 0 0 0 0 0 127 0" result="hardAlpha"/>
<feOffset dy="4"/>
<feGaussianBlur stdDeviation="2"/>
<feComposite in2="hardAlpha" operator="out"/>
<feColorMatrix type="matrix" values="0 0 0 0 0 0 0 0 0 0 0 0 0 0 0 0 0 0 0.25 0"/>
<feBlend mode="normal" in2="BackgroundImageFix" result="effect1_dropShadow_12_28"/>
<feBlend mode="normal" in="SourceGraphic" in2="effect1_dropShadow_12_28" result="shape"/>
</filter>
</defs>
</svg>
