<svg width="15" height="10" viewBox="0 0 15 10" fill="none" xmlns="http://www.w3.org/2000/svg">
<path d="M14.6279 2.15556C14.6279 2.15556 14.489 1.17778 14.0614 0.744444C13.5227 0.177778 12.9174 0.177778 12.6342 0.144444C10.6516 0 7.66946 0 7.66946 0H7.66391C7.66391 0 4.68174 0 2.68807 0.144444C2.4104 0.177778 1.80508 0.177778 1.26085 0.744444C0.838795 1.17778 0.699961 2.15556 0.699961 2.15556C0.699961 2.15556 0.555573 3.31111 0.555573 4.46111V5.53889C0.555573 6.68889 0.699961 7.83889 0.699961 7.83889C0.699961 7.83889 0.838795 8.81667 1.26641 9.25C1.80508 9.81667 2.51592 9.8 2.83246 9.85556C3.97091 9.96667 7.66391 10 7.66391 10C7.66391 10 10.6516 9.99444 12.6397 9.85C12.9174 9.81667 13.5227 9.81667 14.067 9.25C14.4946 8.81667 14.6334 7.83889 14.6334 7.83889C14.6334 7.83889 14.7778 6.68889 14.7778 5.53889V4.46111C14.7722 3.31111 14.6279 2.15556 14.6279 2.15556ZM6.19781 6.84444V2.85L10.0408 4.85556L6.19781 6.84444Z" fill="url(#paint0_linear_12_50)"/>
<defs>
<linearGradient id="paint0_linear_12_50" x1="1820.29" y1="1.8e-05" x2="1820.29" y2="1800.54" gradientUnits="userSpaceOnUse">
<stop stop-color="white"/>
<stop offset="1" stop-color="#BF171D"/>
</linearGradient>
</defs>
</svg>
